<svg xmlns="http://www.w3.org/2000/svg" xmlns:xlink="http://www.w3.org/1999/xlink" version="1.1" width="99.93060251304222" height="59.61576028892113" viewBox="0.3170392700597001 0.545162696497078 99.93060251304222 59.61576028892113">
  <!-- Exported by Scratch - http://scratch.mit.edu/ -->
  <g id="ID0.5386521480977535">
    <path id="Back_Foot_1" fill="#726658" stroke="#000000" stroke-width="1.396674595561752" d="M 36.7078 47.2657 C 36.7078 47.2657 40.028 52.3336 39.1321 54.0351 C 38.2363 55.7393 37.9973 57.8138 38.6172 58.1315 C 39.8543 58.7661 40.9778 56.5196 40.9778 56.5196 C 40.9778 56.5196 42.3663 60.0404 43.8854 59.3801 C 45.4045 58.7198 44.4062 54.572 44.4062 54.572 C 44.4062 54.572 48.0113 55.5892 48.2988 53.1364 C 48.5848 50.6807 42.4018 51.2608 42.4018 51.2608 C 42.4018 51.2608 40.6934 47.3948 40.2456 45.555 C 39.6314 43.0333 35.397 45.5075 36.7078 47.2657 L 36.7078 47.2657 L 36.7078 47.2657 Z "/>
    <path id="Back_Foot_2" fill="#726658" stroke="#000000" stroke-width="1.396674595561752" d="M 40.2887 19.8949 C 40.2887 19.8949 42.7027 14.3381 44.6164 14.1528 C 46.5322 13.966 48.3976 13.0263 48.3234 12.3336 C 48.175 10.953 45.6793 11.2456 45.6793 11.2456 C 45.6793 11.2456 47.8597 8.1523 46.4731 7.2434 C 45.0872 6.3373 42.1688 9.4487 42.1688 9.4487 C 42.1688 9.4487 41.0403 5.8763 38.8323 6.9831 C 36.6223 8.0926 40.5023 12.9432 40.5023 12.9432 C 40.5023 12.9432 38.2093 16.4937 36.917 17.878 C 35.1453 19.7756 39.5383 21.9552 40.2887 19.8949 L 40.2887 19.8949 L 40.2887 19.8949 Z "/>
    <path id="Front_Foot_2" fill="#726658" stroke="#000000" stroke-width="1.396674595561752" d="M 59.3216 21.793 C 59.3216 21.793 61.7356 16.2362 63.6493 16.0509 C 65.5651 15.8642 67.4305 14.9244 67.3563 14.2317 C 67.2079 12.8511 64.7122 13.1437 64.7122 13.1437 C 64.7122 13.1437 66.8933 10.0504 65.5053 9.1415 C 64.1187 8.2354 61.2017 11.3468 61.2017 11.3468 C 61.2017 11.3468 60.0732 7.7745 57.8659 8.8812 C 55.6545 9.9908 59.5359 14.8413 59.5359 14.8413 C 59.5359 14.8413 57.2415 18.3918 55.9499 19.7761 C 54.1796 21.6738 58.5719 23.8533 59.3216 21.793 L 59.3216 21.793 L 59.3216 21.793 Z "/>
    <path id="Front_Foot_1" fill="#726658" stroke="#000000" stroke-width="1.396674595561752" d="M 55.2948 47.7074 C 55.2948 47.7074 59.8173 51.7384 59.3946 53.6144 C 58.9734 55.4939 59.2811 57.5586 59.9635 57.7045 C 61.3214 57.9963 61.8225 55.5343 61.8225 55.5343 C 61.8225 55.5343 64.0797 58.574 65.3763 57.5395 C 66.6702 56.5072 64.6285 52.7613 64.6285 52.7613 C 64.6285 52.7613 68.3736 52.8064 68.0138 50.3644 C 67.6519 47.9175 61.8296 50.0862 61.8296 50.0862 C 61.8296 50.0862 59.176 46.7964 58.2663 45.1367 C 57.0164 42.8603 53.5725 46.3501 55.2948 47.7074 L 55.2948 47.7074 L 55.2948 47.7074 Z "/>
    <path id="Body" fill="#726658" stroke="#000000" stroke-width="1.396674595561752" d="M 70.6334 41.3143 C 67.6771 44.9534 59.5285 49.948 43.7589 48.7082 C 27.9893 47.469 24.3411 37.6904 26.2202 28.0188 C 28.1007 18.3491 37.0634 13.5319 50.1033 16.2225 C 62.3793 19.8653 63.6448 20.0694 67.8744 22.2527 C 77.8221 27.3883 73.9034 37.2892 70.6334 41.3143 L 70.6334 41.3143 L 70.6334 41.3143 Z M 43.7582 48.7082 C 27.9886 47.469 24.3397 37.6905 26.2202 28.0181 C 28.0993 18.3485 37.0627 13.5312 50.1026 16.2218 "/>
    <g id="Head">
      <path id="Whisker4" fill="none" stroke="#000000" stroke-linecap="round" d="M 92.527 42.3531 C 92.527 42.3531 93.1325 44.9176 95.9755 46.595 " stroke-width="0.698337297780876"/>
      <path id="Whisker3" fill="none" stroke="#000000" stroke-linecap="round" d="M 94.3022 41.0707 C 94.3022 41.0707 95.7746 43.2525 99.0293 43.8174 " stroke-width="0.698337297780876"/>
      <path id="Whisker2" fill="none" stroke="#000000" stroke-linecap="round" d="M 93.1833 25.4722 C 93.1833 25.4722 93.7342 22.8951 96.5433 21.1599 " stroke-width="0.698337297780876"/>
      <path id="Whisker1" fill="none" stroke="#000000" stroke-linecap="round" d="M 94.8794 27.4653 C 94.8794 27.4653 96.307 25.2527 99.5493 24.6213 " stroke-width="0.698337297780876"/>
      <path id="Head_1_" fill="#726658" stroke="#000000" stroke-width="1.396674595561752" d="M 81.2315 45.7992 C 81.2315 45.7992 85.728 46.7806 91.5915 43.2609 C 94.2886 41.6414 96.8815 38.9957 96.8409 34.1263 C 96.7846 27.0691 91.9777 23.9636 89.5174 22.4911 C 84.3713 19.41 80.349 21.3275 80.349 21.3275 C 76.5293 21.3677 68.976 27.0657 69.2731 33.6427 C 69.5703 40.2197 74.8845 45.1092 81.2315 45.7992 L 81.2315 45.7992 L 81.2315 45.7992 Z "/>
      <path id="Nose" stroke="#000000" stroke-width="1.396674595561752" d="M 94.6812 34.3023 C 94.6719 33.3987 94.9148 32.577 95.3144 31.9799 C 95.714 31.3829 96.2702 31.0098 96.8889 31.0034 C 97.5076 30.997 98.0714 31.3585 98.4833 31.9471 C 98.8951 32.5358 99.155 33.3523 99.1643 34.2559 C 99.1737 35.1595 98.9308 35.9812 98.5312 36.5783 C 98.1316 37.1753 97.5754 37.5484 96.9567 37.5548 C 96.338 37.5612 95.7742 37.1997 95.3623 36.6111 C 94.9505 36.0224 94.6906 35.2059 94.6812 34.3023 L 94.6812 34.3023 Z "/>
      <g id="R_Eye">
        <path id="White" fill="#FFFFFF" stroke="#000000" d="M 82.7227 28.4745 C 82.7134 27.5709 83.0722 26.748 83.6589 26.1483 C 84.2463 25.5493 85.0616 25.1735 85.9652 25.1642 C 86.8688 25.1548 87.6917 25.5137 88.2914 26.1004 C 88.8904 26.6878 89.2662 27.5031 89.2756 28.4067 C 89.2849 29.3103 88.9261 30.1332 88.3394 30.7329 C 87.752 31.3319 86.9366 31.7077 86.033 31.717 C 85.1294 31.7264 84.3065 31.3676 83.7068 30.7808 C 83.1078 30.1934 82.7321 29.3781 82.7227 28.4745 L 82.7227 28.4745 Z " stroke-width="0.698337297780876"/>
        <path id="Pupil" d="M 84.5775 27.7234 C 84.5717 27.1599 84.7954 26.6464 85.1617 26.2731 C 85.5273 25.8992 86.0361 25.6649 86.5996 25.6591 C 87.1631 25.6532 87.6766 25.877 88.0499 26.2433 C 88.4238 26.6088 88.6581 27.1176 88.664 27.6811 C 88.6698 28.2447 88.446 28.7582 88.0798 29.1314 C 87.7142 29.5053 87.2054 29.7397 86.6419 29.7455 C 86.0783 29.7513 85.5648 29.5276 85.1916 29.1613 C 84.8177 28.7957 84.5833 28.287 84.5775 27.7234 L 84.5775 27.7234 Z " stroke-width="0.698337297780876"/>
        <g id="Eyelid">
          <path id="Lid" fill="#58595B" d="M 83.035 32.063 C 83.035 32.063 77.8078 28.8376 82.9598 24.7937 C 82.9598 24.793 84.6182 28.8167 83.035 32.063 L 83.035 32.063 L 83.035 32.063 Z " stroke-width="0.698337297780876"/>
          <path id="Lash" d="M 84.1935 28.6737 C 84.2217 31.4055 83.3519 32.6513 83.314 32.7054 C 83.1454 32.9404 82.8177 32.9941 82.5827 32.8262 C 82.3491 32.6582 82.2948 32.3354 82.4592 32.099 C 82.4757 32.0744 83.2698 30.8615 83.1301 28.1623 C 82.9915 25.5609 82.5065 24.9213 82.5015 24.9151 C 82.2969 24.714 82.3027 24.3941 82.5065 24.1873 C 82.709 23.9806 83.052 23.9903 83.2587 24.1928 C 83.4344 24.3649 84.0188 25.155 84.1757 28.1075 C 84.1854 28.3023 84.1916 28.4921 84.1935 28.6737 L 84.1935 28.6737 L 84.1935 28.6737 L 84.1935 28.6737 Z " stroke-width="0.698337297780876"/>
        </g>
      </g>
      <g id="L_Eye">
        <path id="White_1_" fill="#FFFFFF" stroke="#000000" d="M 82.6616 40.0493 C 82.6523 39.1457 83.0111 38.3228 83.5978 37.7231 C 84.1852 37.1241 85.0005 36.7483 85.9041 36.739 C 86.8077 36.7296 87.6307 37.0885 88.2303 37.6752 C 88.8293 38.2626 89.2051 39.0779 89.2145 39.9815 C 89.2238 40.8851 88.865 41.708 88.2783 42.3077 C 87.6909 42.9067 86.8756 43.2825 85.972 43.2918 C 85.0684 43.3012 84.2455 42.9424 83.6458 42.3556 C 83.0468 41.7682 82.671 40.9529 82.6616 40.0493 L 82.6616 40.0493 Z " stroke-width="0.698337297780876"/>
        <path id="Pupil_1_" d="M 84.4369 39.2369 C 84.431 38.6734 84.6548 38.1598 85.0211 37.7866 C 85.3866 37.4127 85.8954 37.1784 86.459 37.1725 C 87.0225 37.1667 87.536 37.3904 87.9092 37.7567 C 88.2832 38.1223 88.5175 38.6311 88.5233 39.1946 C 88.5292 39.7581 88.3054 40.2717 87.9391 40.6449 C 87.5736 41.0188 87.0648 41.2531 86.5012 41.259 C 85.9377 41.2648 85.4242 41.0411 85.051 40.6748 C 84.677 40.3092 84.4427 39.8004 84.4369 39.2369 L 84.4369 39.2369 Z " stroke-width="0.698337297780876"/>
        <g id="Eyelid_1_">
          <path id="Lid_1_" fill="#58595B" d="M 83.368 43.9264 C 83.368 43.9264 77.8331 41.2621 82.5369 36.704 C 82.5369 36.704 84.6032 40.5335 83.368 43.9264 L 83.368 43.9264 L 83.368 43.9264 Z " stroke-width="0.698337297780876"/>
          <path id="Lash_1_" d="M 84.1657 40.4346 C 84.4781 43.1488 83.7432 44.4777 83.7102 44.5367 C 83.5669 44.7875 83.2465 44.876 82.9964 44.7333 C 82.747 44.5907 82.6579 44.2738 82.7984 44.0224 C 82.8128 43.9964 83.4755 42.7073 83.0561 40.0383 C 82.6475 37.4655 82.0994 36.8782 82.0931 36.8727 C 81.8699 36.6941 81.8407 36.376 82.0221 36.1492 C 82.202 35.9225 82.5439 35.8966 82.7707 36.0758 C 82.9629 36.2282 83.6269 36.9539 84.0894 39.8732 C 84.12 40.0671 84.145 40.2547 84.1657 40.4346 L 84.1657 40.4346 L 84.1657 40.4346 L 84.1657 40.4346 Z " stroke-width="0.698337297780876"/>
        </g>
      </g>
      <path id="L_Ear" fill="#E6E7E8" stroke="#000000" stroke-width="1.396674595561752" d="M 77.2723 39.2405 C 77.2723 39.2405 72.9637 39.0106 69.5389 40.9645 C 65.2482 43.4106 64.137 48.7326 66.7558 51.9543 C 69.3731 55.1761 74.7285 55.8756 77.731 53.329 C 81.7837 49.8894 81.7253 44.25 81.7253 44.25 "/>
      <path id="R_Ear" fill="#E6E7E8" stroke="#000000" stroke-width="1.396674595561752" d="M 81.5258 24.9713 C 81.5258 24.9713 81.4322 20.657 79.2278 17.3884 C 76.4667 13.2938 71.0763 12.5834 68.0602 15.434 C 65.0441 18.2852 64.7458 23.6784 67.511 26.4824 C 71.2432 30.2666 76.8637 29.786 76.8637 29.786 "/>
    </g>
    <path id="Tail" fill="#58595B" stroke="#000000" stroke-width="1.396674595561752" stroke-linejoin="round" d="M 28.7562 34.6543 C 23.8175 36.3557 14.1134 38.7077 6.2539 30.6732 C -4.5498 19.6278 4.6912 1.4205 4.7844 1.2435 C 4.7844 1.2435 -3.4241 18.6035 6.6674 28.923 C 13.9884 36.4078 23.3883 33.6225 28.0146 32.0277 C 30.3601 32.8708 28.8784 34.5853 28.8784 34.5853 C 28.8784 34.5853 28.8787 34.6125 28.7562 34.6543 L 28.7562 34.6543 L 28.7562 34.6543 Z "/>
  </g>
</svg>